<?xml version="1.0" standalone="no"?>
<!DOCTYPE svg PUBLIC "-//W3C//DTD SVG 20010904//EN"
 "http://www.w3.org/TR/2001/REC-SVG-20010904/DTD/svg10.dtd">
<svg version="1.0" xmlns="http://www.w3.org/2000/svg"
 width="1284.000000pt" height="1147.000000pt" viewBox="0 0 1284.000000 1147.000000"
 preserveAspectRatio="xMidYMid meet">

<g transform="translate(0.000000,1147.000000) scale(0.100000,-0.100000)"
fill="#000000" stroke="none">
<path d="M1615 6584 c-11 -2 -44 -9 -73 -15 -215 -43 -420 -205 -521 -412 -63
-130 -83 -219 -83 -367 1 -357 211 -640 557 -750 83 -26 279 -38 365 -22 75
14 155 45 224 87 32 19 60 35 62 35 2 0 4 -22 4 -50 l0 -50 220 0 220 0 -2
758 -3 757 -215 0 -215 0 -3 -47 c-2 -27 -5 -48 -7 -48 -1 0 -26 16 -55 35
-85 57 -194 87 -335 91 -66 1 -129 1 -140 -2z m323 -439 c223 -101 280 -416
109 -602 -84 -92 -174 -128 -301 -121 -63 3 -94 11 -136 32 -228 114 -292 415
-129 601 41 47 80 73 148 102 48 20 69 23 151 20 79 -2 106 -8 158 -32z"/>
<path d="M6161 6575 c-257 -58 -461 -226 -565 -462 -41 -95 -59 -193 -58 -323
1 -348 203 -630 532 -741 81 -27 114 -33 221 -37 170 -6 266 17 393 93 32 19
60 35 62 35 2 0 4 -22 4 -50 l0 -50 220 0 220 0 -2 758 -3 757 -215 0 -215 0
-3 -47 c-2 -27 -5 -48 -7 -48 -1 0 -25 15 -52 33 -27 18 -87 46 -134 61 -70
24 -104 29 -209 32 -85 3 -146 -1 -189 -11z m323 -410 c104 -32 186 -102 227
-194 112 -253 -54 -536 -323 -549 -231 -12 -410 172 -396 408 12 201 168 349
368 350 41 0 97 -7 124 -15z"/>
<path d="M7925 6574 c-82 -18 -191 -68 -256 -118 -162 -123 -215 -369 -119
-556 30 -58 119 -143 195 -185 84 -47 163 -75 345 -120 174 -44 228 -67 237
-103 16 -66 -59 -117 -172 -116 -125 1 -262 57 -373 152 l-54 45 -136 -137
-137 -137 66 -62 c159 -149 370 -227 613 -227 376 0 617 189 619 485 1 182
-76 312 -241 407 -71 40 -185 78 -374 122 -96 23 -167 45 -183 57 -35 29 -34
70 5 103 78 65 257 32 417 -76 l51 -35 74 76 c40 42 100 104 132 138 l60 62
-20 22 c-27 30 -117 90 -192 128 -166 84 -379 112 -557 75z"/>
<path d="M9537 6574 c-388 -83 -652 -435 -624 -829 26 -362 267 -643 620 -720
60 -13 108 -16 200 -13 143 6 218 27 319 88 37 22 69 40 72 40 4 0 6 -22 6
-50 l0 -50 220 0 220 0 -2 758 -3 757 -215 0 -215 0 -3 -47 c-2 -27 -5 -48 -7
-48 -2 0 -24 13 -47 29 -132 89 -358 124 -541 85z m336 -413 c320 -105 338
-564 29 -709 -50 -24 -70 -27 -157 -27 -89 0 -106 3 -157 28 -79 39 -143 104
-181 185 -29 61 -32 75 -32 167 0 89 3 107 28 160 45 96 125 167 227 201 56
19 179 17 243 -5z"/>
<path d="M11660 6570 c-101 -13 -209 -60 -259 -114 -14 -14 -28 -26 -33 -26
-4 0 -8 29 -8 65 l0 65 -212 -2 -213 -3 -3 -757 -2 -758 220 0 220 0 0 358 c0
386 6 446 53 538 71 139 205 214 383 214 l54 0 0 209 c0 181 -2 210 -16 215
-20 7 -111 6 -184 -4z"/>
<path d="M2957 6553 c-4 -3 -7 -345 -7 -760 l0 -753 220 0 220 0 0 555 0 555
248 -2 247 -3 3 -553 2 -552 215 2 215 3 0 553 0 552 250 0 250 0 0 -555 0
-555 220 0 220 0 0 754 c0 678 -2 754 -16 760 -22 8 -2279 8 -2287 -1z"/>
</g>
</svg>
